<svg width="33" height="26" viewBox="0 0 33 26" fill="none" xmlns="http://www.w3.org/2000/svg">
<path d="M19.2023 9.6769C17.2474 9.6769 14.9888 8.92503 12.4398 6.92004C5.30714 1.30607 1.48369 6.49545 1.3241 6.71954L0.0784302 5.17747C0.127193 5.10965 4.94585 -1.60706 13.3065 4.97107C21.9574 11.7792 26.5256 2.19062 26.7162 1.77783L28.168 2.95429C28.1259 3.04569 25.0073 9.67395 19.2023 9.67395V9.6769Z" fill="#91D0D7"/>
<path d="M19.2023 17.8356C17.2474 17.8356 14.9888 17.0837 12.4398 15.0787C5.30714 9.46474 1.48369 14.6541 1.3241 14.8782L0.0784302 13.3361C0.127193 13.2683 4.94585 6.55161 13.3065 13.1297C21.9951 19.9674 26.5256 10.3522 26.714 9.93945L28.168 11.1159C28.1259 11.2073 25.0073 17.8356 19.2023 17.8356Z" fill="#0061AC"/>
<path d="M32.334 0H30.7802V24.7439H32.334V0Z" fill="#77B42B"/>
<path d="M19.2023 26C17.2474 26 14.9888 25.2482 12.4398 23.2432C5.30714 17.6292 1.48369 22.8186 1.3241 23.0427L0.0784302 21.5006C0.127193 21.4328 4.94585 14.7161 13.3065 21.2942C21.9574 28.1023 26.5256 18.5137 26.7162 18.101L28.168 19.2774C28.1259 19.3688 25.0073 25.9971 19.2023 25.9971V26Z" fill="#2A3173"/>
</svg>
